<svg width="815" height="149" viewBox="0 0 815 149" fill="none" xmlns="http://www.w3.org/2000/svg">
<path d="M169.32 134V89.2H173.672V109.936H200.552V89.2H204.904V134H200.552V111.472H173.672V134H169.32ZM218.37 111.6C218.37 108.315 218.946 105.264 220.098 102.448C221.293 99.5893 222.935 97.1147 225.026 95.024C227.159 92.8907 229.634 91.248 232.45 90.096C235.309 88.9013 238.381 88.304 241.666 88.304C244.951 88.304 248.002 88.9013 250.818 90.096C253.677 91.248 256.151 92.8907 258.242 95.024C260.375 97.1147 262.018 99.5893 263.17 102.448C264.365 105.264 264.962 108.315 264.962 111.6C264.962 114.885 264.365 117.957 263.17 120.816C262.018 123.632 260.375 126.107 258.242 128.24C256.151 130.331 253.677 131.973 250.818 133.168C248.002 134.32 244.951 134.896 241.666 134.896C238.381 134.896 235.309 134.32 232.45 133.168C229.634 131.973 227.159 130.331 225.026 128.24C222.935 126.107 221.293 123.632 220.098 120.816C218.946 117.957 218.37 114.885 218.37 111.6ZM223.234 111.6C223.234 115.952 224.002 119.771 225.538 123.056C227.074 126.299 229.229 128.837 232.002 130.672C234.775 132.464 237.997 133.36 241.666 133.36C245.335 133.36 248.557 132.464 251.33 130.672C254.103 128.837 256.258 126.277 257.794 122.992C259.33 119.707 260.098 115.909 260.098 111.6C260.098 107.291 259.33 103.515 257.794 100.272C256.258 96.9867 254.103 94.4267 251.33 92.592C248.557 90.7573 245.335 89.84 241.666 89.84C237.997 89.84 234.775 90.7573 232.002 92.592C229.271 94.384 227.117 96.9227 225.538 100.208C224.002 103.451 223.234 107.248 223.234 111.6ZM286.685 134V90.48C286.045 90.48 284.722 90.608 282.717 90.864L270.173 92.464V89.2H307.549V92.464L295.005 90.864C293 90.608 291.677 90.48 291.037 90.48V134H286.685ZM335.195 134V89.2H349.275C354.224 89.2 358.534 90.1387 362.203 92.016C365.872 93.8933 368.731 96.5173 370.779 99.888C372.827 103.216 373.851 107.12 373.851 111.6C373.851 116.08 372.827 120.005 370.779 123.376C368.731 126.704 365.872 129.307 362.203 131.184C358.534 133.061 354.224 134 349.275 134H335.195ZM349.275 90.736H339.547V132.464H349.275C355.462 132.464 360.283 130.629 363.739 126.96C367.238 123.291 368.987 118.171 368.987 111.6C368.987 105.029 367.238 99.9093 363.739 96.24C360.283 92.5707 355.462 90.736 349.275 90.736ZM380.039 134L397.255 89.2H401.223L418.439 134H413.767L405.831 113.008H391.303L384.711 134H380.039ZM397.703 92.528L391.751 111.472H405.255L398.087 92.528H397.703ZM427.86 134L429.46 88.304H430.228L462.42 127.216H462.804L461.396 89.2H465.748L464.148 134.896H463.38L431.188 95.984H430.804L432.212 134H427.86ZM503.781 112.752V111.216H519.973V128.624C518.01 130.587 515.6 132.123 512.741 133.232C509.925 134.341 506.768 134.896 503.269 134.896C499.685 134.896 496.378 134.32 493.349 133.168C490.32 131.973 487.674 130.331 485.413 128.24C483.152 126.107 481.381 123.632 480.101 120.816C478.864 118 478.245 114.928 478.245 111.6C478.245 108.272 478.864 105.2 480.101 102.384C481.381 99.568 483.152 97.1147 485.413 95.024C487.674 92.8907 490.32 91.248 493.349 90.096C496.378 88.9013 499.685 88.304 503.269 88.304C504.805 88.304 506.469 88.4107 508.261 88.624C510.096 88.8373 511.845 89.136 513.509 89.52C515.173 89.8613 516.581 90.288 517.733 90.8L517.413 94.384H517.029C515.322 92.8907 513.274 91.76 510.885 90.992C508.496 90.224 505.957 89.84 503.269 89.84C499.258 89.84 495.738 90.7573 492.709 92.592C489.68 94.384 487.312 96.9227 485.605 100.208C483.941 103.451 483.109 107.248 483.109 111.6C483.109 115.952 483.941 119.771 485.605 123.056C487.312 126.299 489.68 128.837 492.709 130.672C495.738 132.464 499.258 133.36 503.269 133.36C505.744 133.36 508.026 133.019 510.117 132.336C512.25 131.653 514.085 130.672 515.621 129.392V112.752H503.781ZM574.281 112.752V111.216H590.473V128.624C588.51 130.587 586.1 132.123 583.241 133.232C580.425 134.341 577.268 134.896 573.769 134.896C570.185 134.896 566.878 134.32 563.849 133.168C560.82 131.973 558.174 130.331 555.913 128.24C553.652 126.107 551.881 123.632 550.601 120.816C549.364 118 548.745 114.928 548.745 111.6C548.745 108.272 549.364 105.2 550.601 102.384C551.881 99.568 553.652 97.1147 555.913 95.024C558.174 92.8907 560.82 91.248 563.849 90.096C566.878 88.9013 570.185 88.304 573.769 88.304C575.305 88.304 576.969 88.4107 578.761 88.624C580.596 88.8373 582.345 89.136 584.009 89.52C585.673 89.8613 587.081 90.288 588.233 90.8L587.913 94.384H587.529C585.822 92.8907 583.774 91.76 581.385 90.992C578.996 90.224 576.457 89.84 573.769 89.84C569.758 89.84 566.238 90.7573 563.209 92.592C560.18 94.384 557.812 96.9227 556.105 100.208C554.441 103.451 553.609 107.248 553.609 111.6C553.609 115.952 554.441 119.771 556.105 123.056C557.812 126.299 560.18 128.837 563.209 130.672C566.238 132.464 569.758 133.36 573.769 133.36C576.244 133.36 578.526 133.019 580.617 132.336C582.75 131.653 584.585 130.672 586.121 129.392V112.752H574.281ZM601.995 111.6C601.995 108.315 602.571 105.264 603.723 102.448C604.918 99.5893 606.56 97.1147 608.651 95.024C610.784 92.8907 613.259 91.248 616.075 90.096C618.934 88.9013 622.006 88.304 625.291 88.304C628.576 88.304 631.627 88.9013 634.443 90.096C637.302 91.248 639.776 92.8907 641.867 95.024C644 97.1147 645.643 99.5893 646.795 102.448C647.99 105.264 648.587 108.315 648.587 111.6C648.587 114.885 647.99 117.957 646.795 120.816C645.643 123.632 644 126.107 641.867 128.24C639.776 130.331 637.302 131.973 634.443 133.168C631.627 134.32 628.576 134.896 625.291 134.896C622.006 134.896 618.934 134.32 616.075 133.168C613.259 131.973 610.784 130.331 608.651 128.24C606.56 126.107 604.918 123.632 603.723 120.816C602.571 117.957 601.995 114.885 601.995 111.6ZM606.859 111.6C606.859 115.952 607.627 119.771 609.163 123.056C610.699 126.299 612.854 128.837 615.627 130.672C618.4 132.464 621.622 133.36 625.291 133.36C628.96 133.36 632.182 132.464 634.955 130.672C637.728 128.837 639.883 126.277 641.419 122.992C642.955 119.707 643.723 115.909 643.723 111.6C643.723 107.291 642.955 103.515 641.419 100.272C639.883 96.9867 637.728 94.4267 634.955 92.592C632.182 90.7573 628.96 89.84 625.291 89.84C621.622 89.84 618.4 90.7573 615.627 92.592C612.896 94.384 610.742 96.9227 609.163 100.208C607.627 103.451 606.859 107.248 606.859 111.6ZM704.184 89.2V134H699.832V92.912H699.448L683.96 122.608H681.976L664.376 96.432H663.992L665.4 134H661.048L662.648 88.304H663.928L684.088 118.256H684.472L699.576 89.2H704.184ZM720.82 134V89.2H740.34V92.336L729.14 90.864C727.177 90.608 725.855 90.48 725.172 90.48V110C725.727 110 727.049 109.936 729.14 109.808L739.636 109.168V112.112L729.14 111.472C727.049 111.344 725.727 111.28 725.172 111.28V132.72C725.94 132.72 727.284 132.592 729.204 132.336L740.532 130.864V134H720.82ZM750.041 132.592L750.425 128.752H750.809C752.473 130.203 754.35 131.333 756.441 132.144C758.532 132.955 760.601 133.36 762.649 133.36C765.55 133.36 767.897 132.571 769.689 130.992C771.481 129.371 772.377 127.216 772.377 124.528C772.377 123.035 772.036 121.648 771.353 120.368C770.713 119.088 769.625 117.787 768.089 116.464C766.596 115.141 764.526 113.712 761.881 112.176C760.046 111.109 758.297 110 756.633 108.848C754.969 107.653 753.604 106.288 752.537 104.752C751.47 103.173 750.937 101.296 750.937 99.12C750.937 95.8773 752.11 93.2747 754.457 91.312C756.804 89.3067 759.897 88.304 763.737 88.304C765.444 88.304 767.278 88.496 769.241 88.88C771.204 89.2213 772.718 89.6693 773.785 90.224L773.465 93.808H773.081C770.649 91.1627 767.534 89.84 763.737 89.84C761.006 89.84 758.809 90.544 757.145 91.952C755.481 93.3173 754.649 95.1733 754.649 97.52C754.649 99.2693 755.097 100.784 755.993 102.064C756.932 103.301 758.126 104.432 759.577 105.456C761.028 106.437 762.585 107.397 764.249 108.336C766.169 109.445 768.025 110.619 769.817 111.856C771.652 113.093 773.145 114.587 774.297 116.336C775.492 118.043 776.089 120.197 776.089 122.8C776.089 125.189 775.534 127.301 774.425 129.136C773.316 130.928 771.737 132.336 769.689 133.36C767.684 134.384 765.337 134.896 762.649 134.896C760.942 134.896 758.937 134.683 756.633 134.256C754.329 133.829 752.132 133.275 750.041 132.592Z" fill="white"/>
<path d="M15 99H25V134C25 135.326 25.5268 136.598 26.4645 137.536C27.4022 138.473 28.6739 139 30 139H90C91.3261 139 92.5979 138.473 93.5355 137.536C94.4732 136.598 95 135.326 95 134V99H105C105.966 99.0009 106.912 98.7211 107.722 98.1948C108.533 97.6685 109.173 96.9182 109.565 96.035C109.96 95.1523 110.09 94.1739 109.939 93.2188C109.788 92.2637 109.363 91.373 108.715 90.655L63.715 40.655C61.82 38.545 58.18 38.545 56.285 40.655L11.285 90.655C10.6385 91.3733 10.2139 92.2636 10.0628 93.2182C9.9117 94.1727 10.0405 95.1506 10.4335 96.0335C10.8265 96.9164 11.467 97.6665 12.2775 98.193C13.0879 98.7194 14.0336 98.9998 15 99ZM43.265 87.205C45.3462 85.1503 48.153 83.9982 51.0775 83.9982C54.002 83.9982 56.8088 85.1503 58.89 87.205L60.01 88.305L61.125 87.205C63.207 85.15 66.0146 83.9978 68.94 83.9978C71.8654 83.9978 74.673 85.15 76.755 87.205C77.7879 88.1987 78.6096 89.3906 79.1709 90.7094C79.7321 92.0282 80.0214 93.4467 80.0214 94.88C80.0214 96.3133 79.7321 97.7318 79.1709 99.0506C78.6096 100.369 77.7879 101.561 76.755 102.555L60.01 119L43.265 102.555C42.2321 101.561 41.4104 100.369 40.8491 99.0506C40.2879 97.7318 39.9986 96.3133 39.9986 94.88C39.9986 93.4467 40.2879 92.0282 40.8491 90.7094C41.4104 89.3906 42.2321 88.1987 43.265 87.205Z" fill="#DB2777"/>
<path d="M86.544 39.7258C86.635 40.0694 86.7931 40.3916 87.0093 40.6737C87.2254 40.9559 87.4953 41.1925 87.8033 41.3698L92.9763 44.3598V50.3154C92.9763 51.0337 93.2616 51.7226 93.7695 52.2305C94.2774 52.7384 94.9663 53.0237 95.6846 53.0237H101.64L104.63 58.1966C104.87 58.6065 105.212 58.9469 105.624 59.1844C106.035 59.4218 106.501 59.5481 106.976 59.5508C107.447 59.5508 107.915 59.4262 108.333 59.1852L113.5 56.1979L118.673 59.1879C119.295 59.5465 120.034 59.6438 120.727 59.4585C121.421 59.2732 122.012 58.8204 122.373 58.1994L125.36 53.0264H131.315C132.034 53.0264 132.723 52.7411 133.231 52.2332C133.738 51.7253 134.024 51.0364 134.024 50.3181V44.3625L139.197 41.3725C139.505 41.1944 139.775 40.9574 139.991 40.6749C140.208 40.3924 140.366 40.07 140.458 39.7262C140.55 39.3824 140.573 39.0238 140.526 38.671C140.479 38.3182 140.364 37.9782 140.185 37.6702L137.198 32.5L140.188 27.3325C140.547 26.7108 140.645 25.9718 140.46 25.278C140.274 24.5843 139.821 23.9925 139.199 23.6329L134.026 20.6429V14.6846C134.026 13.9663 133.741 13.2774 133.233 12.7695C132.725 12.2616 132.036 11.9762 131.318 11.9762H125.363L122.375 6.80603C122.014 6.18559 121.424 5.73219 120.731 5.54394C120.388 5.45082 120.029 5.42681 119.676 5.4733C119.323 5.51979 118.983 5.63586 118.676 5.81478L113.5 8.80207L108.33 5.81207C107.708 5.45271 106.969 5.35498 106.275 5.54035C105.582 5.72573 104.99 6.17904 104.63 6.80061L101.64 11.9735H95.6846C94.9663 11.9735 94.2774 12.2589 93.7695 12.7668C93.2616 13.2747 92.9763 13.9636 92.9763 14.6819V20.6375L87.8033 23.6275C87.1819 23.9886 86.729 24.5813 86.5437 25.2758C86.3584 25.9702 86.4559 26.7098 86.8148 27.3325L89.8048 32.5L86.8148 37.6675C86.4573 38.2913 86.36 39.0308 86.544 39.7258ZM113.5 35.2083C104.075 35.2083 102.667 30.1194 102.667 27.0833C102.667 23.5977 105.454 20.0877 110.792 19.1885V16.2825H116.208V19.286C120.905 20.3964 122.708 24.3046 122.708 27.0833H120L117.292 27.1321C117.254 26.1029 116.709 24.375 113.5 24.375C109.982 24.375 108.083 25.7698 108.083 27.0833C108.083 28.0962 108.083 29.7917 113.5 29.7917C122.925 29.7917 124.333 34.8806 124.333 37.9167C124.333 41.4023 121.546 44.9123 116.208 45.8114V48.75H110.792V45.825C104.457 44.831 102.667 40.4002 102.667 37.9167H108.083C108.113 38.3039 108.514 40.625 113.5 40.625C117.238 40.625 118.917 39.0406 118.917 37.9167C118.917 37.0364 118.917 35.2083 113.5 35.2083Z" fill="white"/>
</svg>
